<svg width="49" height="58" viewBox="0 0 49 58" fill="none" xmlns="http://www.w3.org/2000/svg">
<path d="M41.4863 52.9969C44.4221 52.9969 46.5655 50.1868 45.8672 47.2778C43.3504 36.7865 34.0663 29 23 29C11.9337 29 2.64658 36.7896 0.132768 47.2809C-0.565514 50.1899 1.57791 53 4.51373 53H41.4863V52.9969Z" fill="#C555E1"/>
<path d="M38 58C44.0751 58 49 53.0751 49 47C49 40.9249 44.0751 36 38 36C31.9249 36 27 40.9249 27 47C27 53.0751 31.9249 58 38 58Z" fill="#E192F4"/>
<path d="M22.9725 25.9642C30.1371 25.9642 35.9451 20.1519 35.9451 12.9821C35.9451 5.81229 30.1371 0 22.9725 0C15.808 0 10 5.81229 10 12.9821C10 20.1519 15.808 25.9642 22.9725 25.9642Z" fill="#C555E1"/>
<path d="M33 46.5C33 45.6716 33.6716 45 34.5 45H42.5C43.3284 45 44 45.6716 44 46.5C44 47.3284 43.3284 48 42.5 48H34.5C33.6716 48 33 47.3284 33 46.5Z" fill="white"/>
<path d="M38.5 52C37.6716 52 37 51.3284 37 50.5V42.5C37 41.6716 37.6716 41 38.5 41C39.3284 41 40 41.6716 40 42.5V50.5C40 51.3284 39.3284 52 38.5 52Z" fill="white"/>
</svg>
