<svg width="40" height="58" viewBox="0 0 40 58" fill="none" xmlns="http://www.w3.org/2000/svg">
<path d="M38.5037 38.606L31.81 32.5989C29.7483 30.7487 26.4947 32.4426 26.828 35.1926L28.4943 48.9394C28.6016 49.8245 29.097 50.616 29.8461 51.0993L34.8736 54.3428C36.8698 55.6307 39.4999 54.1976 39.4999 51.8219V40.8388C39.4999 39.9868 39.1377 39.1751 38.5037 38.606Z" fill="#F78F8F"/>
<path d="M0.996339 38.606L7.69003 32.5989C9.75172 30.7487 13.0053 32.4426 12.672 35.1926L11.0057 48.9394C10.8984 49.8245 10.403 50.616 9.65387 51.0993L4.62645 54.3428C2.63016 55.6307 6.77109e-05 54.1976 6.77109e-05 51.8219V40.8388C6.77109e-05 39.9868 0.362288 39.1751 0.996339 38.606Z" fill="#F78F8F"/>
<path d="M25.6417 45.4425H14.2677C11.0658 45.4425 8.41102 42.9225 8.39113 39.7208C8.23128 13.9903 15.907 2.55793 20.038 0C29.3856 6.46759 31.5372 26.6813 31.4574 39.8226C31.4381 42.9882 28.8074 45.4425 25.6417 45.4425Z" fill="#F16A6A"/>
<rect x="16.7793" y="20.9736" width="7" height="7" rx="3.5" transform="rotate(-90 16.7793 20.9736)" fill="white"/>
</svg>
