<svg width="56" height="61" viewBox="0 0 56 61" fill="none" xmlns="http://www.w3.org/2000/svg">
<path d="M29.4004 47.2359L41.4775 53.4997C42.0084 53.7753 42.3409 54.3229 42.3409 54.9214V58.1567C42.3409 59.2625 41.2469 60.0356 40.2057 59.6661L29.4844 55.8528C28.8462 55.6256 28.4199 55.0216 28.4199 54.3434V47.8326C28.4208 47.3289 28.9535 47.0041 29.4004 47.2359Z" fill="#7B65FF"/>
<path d="M27.4991 47.2359L15.4219 53.4997C14.8911 53.7753 14.5586 54.3229 14.5586 54.9214V58.1567C14.5586 59.2625 15.6525 60.0356 16.6937 59.6661L27.4151 55.8528C28.0532 55.6256 28.4795 55.0216 28.4795 54.3434V47.8326C28.4795 47.3289 27.946 47.0041 27.4991 47.2359Z" fill="#7B65FF"/>
<path d="M46.4521 29.8648H44.1722C43.1614 29.8648 42.3418 29.0444 42.3418 28.0325V22.1927C42.3418 21.1808 43.1614 20.3604 44.1722 20.3604H46.4521C47.4629 20.3604 48.2825 21.1808 48.2825 22.1927V28.0325C48.2825 29.0444 47.4629 29.8648 46.4521 29.8648Z" fill="#A899FF"/>
<path d="M34.623 20.3604L54.6027 29.9803C57.0936 31.1801 56.0416 34.2704 53.1423 34.2704H34.623V20.3604Z" fill="#7B65FF"/>
<path d="M13.0146 29.8648H10.7347C9.72386 29.8648 8.9043 29.0444 8.9043 28.0325V22.1927C8.9043 21.1808 9.72386 20.3604 10.7347 20.3604H13.0146C14.0254 20.3604 14.845 21.1808 14.845 22.1927V28.0325C14.8441 29.0444 14.0254 29.8648 13.0146 29.8648Z" fill="#A899FF"/>
<path d="M22.2198 20.3604L2.24015 29.9803C-0.250709 31.1801 0.801228 34.2704 3.70053 34.2704H22.2198V20.3604Z" fill="#7B65FF"/>
<path d="M28.4224 0.664387C28.4224 0.664387 21.1035 0.239401 21.1035 18.8225C21.1035 35.6207 24.657 54.1546 27.534 59.8333C27.904 60.5634 28.9416 60.5634 29.3108 59.8333C32.1868 54.1546 35.7413 35.6207 35.7413 18.8225C35.7413 0.239401 28.4224 0.664387 28.4224 0.664387Z" fill="#5236FF"/>
<path d="M32.3033 8.80057C32.3033 7.79351 31.9032 6.82768 31.1911 6.11558C30.479 5.40347 29.5132 5.00342 28.5061 5.00342C27.4991 5.00342 26.5333 5.40347 25.8211 6.11558C25.109 6.82768 24.709 7.7935 24.709 8.80057L28.5061 8.80057H32.3033Z" fill="white"/>
</svg>
