<svg width="51" height="54" viewBox="0 0 51 54" fill="none" xmlns="http://www.w3.org/2000/svg">
<path d="M43.6645 37.8633L34.9814 46.5198C33.8689 47.6283 32.3702 48.247 30.7995 48.247H7.92264C4.65231 48.247 2 45.5918 2 42.3179V7.9291C2 4.65521 4.65231 2 7.92264 2H39.4826C42.7529 2 45.4052 4.65521 45.4052 7.9291V33.6614C45.4103 35.2391 44.782 36.7497 43.6645 37.8633Z" stroke="white" stroke-width="2.5" stroke-miterlimit="10"/>
<path d="M48.9279 43.3953L40.2448 52.0518C39.1323 53.1603 37.6336 53.779 36.0629 53.779H13.1912C9.92087 53.779 7.26855 51.1238 7.26855 47.8499V13.4611C7.26855 10.1872 9.92087 7.53198 13.1912 7.53198H44.7511C48.0214 7.53198 50.6737 10.1872 50.6737 13.4611V39.1934C50.6737 40.7711 50.0454 42.2817 48.9279 43.3953Z" fill="#907EFF"/>
<path d="M15.7256 21.5492C15.7256 20.9058 16.2471 20.3843 16.8905 20.3843H41.7424C42.3858 20.3843 42.9073 20.9058 42.9073 21.5492C42.9073 22.1926 42.3858 22.7141 41.7424 22.7141H16.8905C16.2471 22.7141 15.7256 22.1926 15.7256 21.5492Z" fill="white"/>
<path d="M15.7256 26.986C15.7256 26.3426 16.2471 25.821 16.8905 25.821H41.7424C42.3858 25.821 42.9073 26.3426 42.9073 26.986C42.9073 27.6294 42.3858 28.1509 41.7424 28.1509H16.8905C16.2471 28.1509 15.7256 27.6294 15.7256 26.986Z" fill="white"/>
<path d="M15.7256 32.4221C15.7256 31.7788 16.2471 31.2572 16.8905 31.2572H41.7424C42.3858 31.2572 42.9073 31.7788 42.9073 32.4221C42.9073 33.0655 42.3858 33.5871 41.7424 33.5871H16.8905C16.2471 33.5871 15.7256 33.0655 15.7256 32.4221Z" fill="white"/>
<path d="M15.7256 37.8584C15.7256 37.215 16.2471 36.6935 16.8905 36.6935H29.3165C29.9598 36.6935 30.4814 37.215 30.4814 37.8584C30.4814 38.5018 29.9598 39.0233 29.3165 39.0233H16.8905C16.2471 39.0233 15.7256 38.5018 15.7256 37.8584Z" fill="white"/>
</svg>
