<svg width="48" height="67" viewBox="0 0 48 67" fill="none" xmlns="http://www.w3.org/2000/svg">
<path d="M24.6494 34.6975C31.5303 34.6975 37.1084 29.1194 37.1084 22.2385C37.1084 15.3576 31.5303 9.77954 24.6494 9.77954C17.7685 9.77954 12.1904 15.3576 12.1904 22.2385C12.1904 29.1194 17.7685 34.6975 24.6494 34.6975Z" fill="#907EFF"/>
<path d="M45.8692 22.3308C45.8692 24.4215 41.7639 25.8312 41.1518 27.716C40.5185 29.6694 42.9881 33.2226 41.8061 34.8487C40.6135 36.4907 36.4607 35.2341 34.8196 36.4273C33.1943 37.61 33.1152 41.9551 31.1628 42.5886C29.2789 43.2011 26.6722 39.7535 24.5826 39.7535C22.493 39.7535 19.8862 43.2011 18.0024 42.5886C16.05 41.9551 15.9708 37.61 14.3455 36.4273C12.7045 35.2341 8.55161 36.4907 7.35905 34.8487C6.17704 33.2226 8.64659 29.6694 8.01337 27.716C7.40126 25.8312 3.2959 24.4162 3.2959 22.3308C3.2959 20.2453 7.40126 18.8304 8.01337 16.9456C8.64659 14.9921 6.17704 11.4389 7.35905 9.81281C8.55161 8.17085 12.7045 9.4274 14.3455 8.23421C15.9708 7.05157 16.05 2.70645 18.0024 2.0729C19.8862 1.46047 22.493 4.90805 24.5826 4.90805C26.6722 4.90805 29.2789 1.46047 31.1628 2.0729C33.1152 2.70645 33.1943 7.05157 34.8196 8.23421C36.4607 9.4274 40.6135 8.17085 41.8061 9.81281C42.9881 11.4389 40.5185 14.9921 41.1518 16.9456C41.7586 18.8251 45.8692 20.24 45.8692 22.3308Z" stroke="white" stroke-width="2.5" stroke-miterlimit="10"/>
<path d="M24.25 43.4809L33.1731 63.876C33.7694 65.2381 35.6163 65.3912 36.0753 64.1189L37.5476 59.2247C37.8325 58.4274 38.7507 58.1159 39.5739 58.5383L44.381 61.2573C45.695 61.9278 46.9403 60.7399 46.3493 59.383L35.9804 35.6829" stroke="white" stroke-width="2.5" stroke-miterlimit="10"/>
<path d="M25.7384 40.0808L15.3272 63.876C14.731 65.2381 12.8841 65.3912 12.425 64.1189L10.9528 59.2247C10.6678 58.4274 9.74965 58.1159 8.92647 58.5383L4.11929 61.2573C2.80537 61.9278 1.56004 60.7399 2.15104 59.383L12.5253 35.6829" stroke="white" stroke-width="2.5" stroke-miterlimit="10"/>
</svg>
