<svg width="61" height="67" viewBox="0 0 61 67" fill="none" xmlns="http://www.w3.org/2000/svg">
<path d="M54.1622 64.9677C57.2448 64.9677 59.4924 62.0786 58.7603 59.0926C56.1181 48.334 46.3728 40.3447 34.7574 40.3447C23.1419 40.3447 13.3909 48.334 10.7544 59.0983C10.0223 62.0843 12.2699 64.9677 15.3525 64.9677H54.1622Z" stroke="white" stroke-width="2.5" stroke-miterlimit="10"/>
<path d="M34.7565 34.9653C42.1507 34.9653 48.1449 28.9928 48.1449 21.6252C48.1449 14.2577 42.1507 8.28516 34.7565 8.28516C27.3623 8.28516 21.3682 14.2577 21.3682 21.6252C21.3682 28.9928 27.3623 34.9653 34.7565 34.9653Z" stroke="white" stroke-width="2.5" stroke-miterlimit="10"/>
<path d="M6.41298 57.2181C8.62055 48.226 14.3053 41.1656 24.2851 37.8833C13.0414 38.2594 2.71846 45.411 0.139152 55.9132C-0.59289 58.8992 1.65471 61.7826 4.73729 61.7826H7.24225C6.37295 60.5061 6.00693 58.8764 6.41298 57.2181Z" fill="#907EFF"/>
<path d="M17.3597 18.9701C17.3597 10.7188 24.0739 4.02881 32.3551 4.02881C35.2832 4.02881 38.017 4.86648 40.3218 6.31389C37.7768 2.51302 33.4303 0 28.4947 0C20.6596 0 14.3057 6.33098 14.3057 14.1436C14.3057 17.8988 15.7812 21.3122 18.1775 23.848C17.6513 22.3151 17.3597 20.6797 17.3597 18.9701Z" fill="#907EFF"/>
</svg>
